<svg viewBox="0 0 60 60" xmlns="http://www.w3.org/2000/svg" width="60"><g fill="none" fill-rule="evenodd"><path d="M24.902 54.653l-4.428 1.918a4 4 0 01-5.163-1.871l-3.403-6.761a4 4 0 00-1.775-1.774l-7.051-3.55a4 4 0 01-2-4.828l2.476-7.496a4 4 0 000-2.51l-2.476-7.496a4 4 0 012-4.827l7.051-3.55a4 4 0 001.775-1.775l3.55-7.051a4 4 0 014.827-2l7.497 2.476a4 4 0 002.509 0l7.496-2.476a4 4 0 014.828 2l3.55 7.051a4 4 0 001.774 1.775l7.052 3.55a4 4 0 012 4.827l-2.477 7.497a4 4 0 000 2.509l2.476 7.496a4 4 0 01-2 4.828l-7.051 3.55a4 4 0 00-1.774 1.774l-3.64 7.229a4 4 0 01-4.604 2.066l-10.397-2.775a4 4 0 00-2.622.194z" fill="#BBBDCB"></path><path d="M40 34.286a4.286 4.286 0 110 8.571 4.286 4.286 0 010-8.571zm3.449-19.163a2.857 2.857 0 010 4.04L20.592 42.02a2.857 2.857 0 11-4.04-4.04l22.856-22.857a2.857 2.857 0 014.04 0zM20 14.286a4.286 4.286 0 110 8.571 4.286 4.286 0 010-8.571z" fill="#2D3A4A"></path></g></svg>