<svg viewBox="0 0 26 26" class="sc-bdfBwQ fQxOdt desktop-icon" color="text" width="auto" xmlns="http://www.w3.org/2000/svg"><path fill-rule="evenodd" clip-rule="evenodd" d="M4.38998 4.50033C4.01476 2.49106 5.55649 0.634766 7.60049 0.634766C9.40427 0.634766 10.8665 2.09701 10.8665 3.90078V7.92728C11.3177 7.89544 11.7761 7.87911 12.2404 7.87911C12.6865 7.87911 13.1272 7.89418 13.5612 7.9236V3.90078C13.5612 2.09701 15.0234 0.634766 16.8272 0.634766C18.8712 0.634766 20.4129 2.49106 20.0377 4.50033L19.1539 9.23326C22.1872 10.5576 24.4809 12.8577 24.4809 15.748V17.4966C24.4809 19.8734 22.9085 21.8634 20.7102 23.2068C18.4948 24.5606 15.4978 25.3654 12.2404 25.3654C8.98304 25.3654 5.98604 24.5606 3.77065 23.2068C1.57242 21.8634 0 19.8734 0 17.4966V15.748C0 12.873 2.2701 10.5817 5.27785 9.25477L4.38998 4.50033ZM18.0212 9.85508L19.0555 4.3169C19.3159 2.92236 18.2459 1.63399 16.8272 1.63399C15.5753 1.63399 14.5604 2.64886 14.5604 3.90078V9.02479C14.2324 8.98273 13.8991 8.9494 13.5612 8.92524C13.128 8.89426 12.6873 8.87833 12.2404 8.87833C11.7753 8.87833 11.3168 8.89559 10.8665 8.92912C10.5286 8.95429 10.1953 8.98862 9.86729 9.03169V3.90078C9.86729 2.64886 8.85241 1.63399 7.60049 1.63399C6.18184 1.63399 5.11179 2.92235 5.37222 4.3169L6.40988 9.87345C3.16599 11.0784 0.999219 13.2586 0.999219 15.748V17.4966C0.999219 21.2906 6.03208 24.3662 12.2404 24.3662C18.4488 24.3662 23.4817 21.2906 23.4817 17.4966V15.748C23.4817 13.2458 21.2927 11.0562 18.0212 9.85508Z" fill="#633001"></path><path d="M23.4815 17.4967C23.4815 21.2907 18.4486 24.3663 12.2402 24.3663C6.03189 24.3663 0.999023 21.2907 0.999023 17.4967V15.748H23.4815V17.4967Z" fill="#FEDC90"></path><path fill-rule="evenodd" clip-rule="evenodd" d="M5.37202 4.31671C5.1116 2.92216 6.18164 1.63379 7.6003 1.63379C8.85222 1.63379 9.8671 2.64867 9.8671 3.90059V9.0315C10.6321 8.93102 11.4261 8.87813 12.2402 8.87813C13.0356 8.87813 13.8116 8.9286 14.5602 9.02459V3.90059C14.5602 2.64867 15.5751 1.63379 16.827 1.63379C18.2457 1.63379 19.3157 2.92216 19.0553 4.31671L18.021 9.85488C21.2925 11.056 23.4815 13.2457 23.4815 15.7478C23.4815 19.5418 18.4486 22.6174 12.2402 22.6174C6.03189 22.6174 0.999023 19.5418 0.999023 15.7478C0.999023 13.2584 3.16579 11.0782 6.40968 9.87326L5.37202 4.31671Z" fill="#D1884F"></path><path d="M9.11817 15.2485C9.11817 16.2833 8.55896 17.1221 7.86914 17.1221C7.17932 17.1221 6.62012 16.2833 6.62012 15.2485C6.62012 14.2138 7.17932 13.375 7.86914 13.375C8.55896 13.375 9.11817 14.2138 9.11817 15.2485Z" fill="#633001"></path><path d="M17.7363 15.2485C17.7363 16.2833 17.1771 17.1221 16.4873 17.1221C15.7975 17.1221 15.2383 16.2833 15.2383 15.2485C15.2383 14.2138 15.7975 13.375 16.4873 13.375C17.1771 13.375 17.7363 14.2138 17.7363 15.2485Z" fill="#633001"></path></svg>
