<svg viewBox="0 0 60 60" xmlns="http://www.w3.org/2000/svg" width="60"><g fill="none" fill-rule="evenodd"><path d="M27 13.162l-14.051 4.684a3 3 0 01-1.898 0l-9-3A3 3 0 113.95 9.154L12 11.838l15-5V3a3 3 0 016 0v3.838l15 5 8.051-2.684a3 3 0 111.898 5.692l-9 3a3 3 0 01-1.898 0L33 13.162V48a6 6 0 006 6h3v6H18v-6h3a6 6 0 006-6V13.162z" fill="#BBBDCB"></path><path d="M50.846 14.051l9 27a3 3 0 01-1.182 3.445C55.193 46.81 51.624 48 48 48c-3.624 0-7.193-1.19-10.664-3.504a3 3 0 01-1.182-3.445l9-27c.912-2.735 4.78-2.735 5.692 0zm-36 0l9 27a3 3 0 01-1.182 3.445C19.193 46.81 15.624 48 12 48c-3.624 0-7.193-1.19-10.664-3.504a3 3 0 01-1.182-3.445l9-27c.912-2.735 4.78-2.735 5.692 0zM48 24.487L43.162 39h9.676L48 24.487zm-36 0L7.162 39h9.676L12 24.487z" fill="#2D3A4A"></path></g></svg>