<?xml version="1.0" standalone="no"?><!DOCTYPE svg PUBLIC "-//W3C//DTD SVG 1.1//EN" "http://www.w3.org/Graphics/SVG/1.1/DTD/svg11.dtd"><svg t="1608082051106" class="icon" viewBox="0 0 1024 1024" version="1.1" xmlns="http://www.w3.org/2000/svg" p-id="7136" xmlns:xlink="http://www.w3.org/1999/xlink" width="200" height="200"><defs><style type="text/css"></style></defs><path d="M391.5 190.22V152a20 20 0 0 1 20-20h190.88a44.2 44.2 0 0 1 38.74 65.4l-125.42 229.66v-174a62.36 62.36 0 0 0-62-62.38z" fill="#FF6B6B" p-id="7137"></path><path d="M602.38 132h-190.88a20 20 0 0 0-20 20v5.8h167.9a44.2 44.2 0 0 1 38.74 65.4l-82.44 150.96v52.9L641.12 197.4A44.2 44.2 0 0 0 602.38 132z" fill="#FA5252" p-id="7138"></path><path d="M438.84 385.04l-109.66-177.76a25.06 25.06 0 0 1 21.3-38.22h154a19.32 19.32 0 0 1 19.32 19.34v196.66z" fill="#FF6B6B" p-id="7139"></path><path d="M719.18 461.06a442.54 442.54 0 0 0-115.72-136.58c-31.66-2.9-85.78-2.32-117.46-5.22-31.66 2.9-85.78 2.32-117.46 5.22a442.64 442.64 0 0 0-115.72 136.58c-21.64 40-53 97.88-48.36 176.36 1.24 20.88 4.32 64.66 31.1 110.66 59.7 102.56 182 121.16 203.82 124.48a316.2 316.2 0 0 0 93.28 0c22-3.34 144.12-22 203.82-124.48 26.78-46 29.86-89.76 31.1-110.66 4.6-78.48-26.76-136.4-48.4-176.36z" fill="#FF6B6B" p-id="7140"></path><path d="M346.42 283.92m38.22 0l202.72 0q38.22 0 38.22 38.22l0 0.04q0 38.22-38.22 38.22l-202.72 0q-38.22 0-38.22-38.22l0-0.04q0-38.22 38.22-38.22Z" fill="#FA5252" p-id="7141"></path><path d="M525.6 504.16a12.66 12.66 0 0 1-16.14-2.82 22.86 22.86 0 0 0-5.72-5.12 27.38 27.38 0 0 0-14.98-3.72 27.66 27.66 0 0 0-18.7 6.4 19.82 19.82 0 0 0-7.44 15.8q0 13.14 19.52 21.16l17.88 7.32q21.84 8.84 32 21.56A48.64 48.64 0 0 1 542 596q0 24.76-16.48 40.92a56.58 56.58 0 0 1-41.24 16.28q-23.34 0-38.56-13.84a56.92 56.92 0 0 1-15.06-23.74 14 14 0 0 1 10-18.22 14 14 0 0 1 16.26 10 26.76 26.76 0 0 0 4 8.8q8.36 11.64 24.4 11.62a28.3 28.3 0 0 0 21.02-8.48 29.38 29.38 0 0 0 8.36-21.5 30.24 30.24 0 0 0-1.46-9.6 24.38 24.38 0 0 0-4.52-8 36.28 36.28 0 0 0-8-6.86 76.64 76.64 0 0 0-11.62-6.1L472 560q-36.82-15.58-36.82-45.58a43.26 43.26 0 0 1 15.46-33.84q15.44-13.72 38.44-13.72a50.7 50.7 0 0 1 39.5 17.7 12.8 12.8 0 0 1-2.98 19.6z" fill="#FFDEEB" p-id="7142"></path><path d="M486 680.48a14.22 14.22 0 0 1-14.2-14.22v-16.14a14.2 14.2 0 1 1 28.42 0v16.14a14.22 14.22 0 0 1-14.22 14.22zM486 484.94a14.22 14.22 0 0 1-14.2-14.22v-16.14a14.2 14.2 0 1 1 28.42 0v16.14a14.22 14.22 0 0 1-14.22 14.22z" fill="#FFDEEB" p-id="7143"></path><path d="M114 688m21.66 0l272.68 0q21.66 0 21.66 21.66l0 144.68q0 21.66-21.66 21.66l-272.68 0q-21.66 0-21.66-21.66l0-144.68q0-21.66 21.66-21.66Z" fill="#20C997" p-id="7144"></path><path d="M377.44 852.5H166.56a28.88 28.88 0 0 0-28.88-28.88v-83.24a28.88 28.88 0 0 0 28.88-28.88h210.88a28.88 28.88 0 0 0 28.88 28.88v83.24a28.88 28.88 0 0 0-28.88 28.88z" fill="#63E6BE" p-id="7145"></path><path d="M237.06 782a35.04 34.94 90 1 0 69.88 0 35.04 34.94 90 1 0-69.88 0Z" fill="#20C997" p-id="7146"></path><path d="M703.42 746.8m13.1 0l176.72 0q13.1 0 13.1 13.1l0 39.4q0 13.1-13.1 13.1l-176.72 0q-13.1 0-13.1-13.1l0-39.4q0-13.1 13.1-13.1Z" fill="#FCC419" p-id="7147"></path><path d="M739.08 681.2m13.1 0l176.72 0q13.1 0 13.1 13.1l0 39.4q0 13.1-13.1 13.1l-176.72 0q-13.1 0-13.1-13.1l0-39.4q0-13.1 13.1-13.1Z" fill="#FFD43B" p-id="7148"></path><path d="M698.48 615.6m13.1 0l176.72 0q13.1 0 13.1 13.1l0 39.4q0 13.1-13.1 13.1l-176.72 0q-13.1 0-13.1-13.1l0-39.4q0-13.1 13.1-13.1Z" fill="#FAB005" p-id="7149"></path><path d="M580.32 812.4m13.1 0l176.72 0q13.1 0 13.1 13.1l0 39.4q0 13.1-13.1 13.1l-176.72 0q-13.1 0-13.1-13.1l0-39.4q0-13.1 13.1-13.1Z" fill="#FFD43B" p-id="7150"></path><path d="M720.96 812.4m13.1 0l176.72 0q13.1 0 13.1 13.1l0 39.4q0 13.1-13.1 13.1l-176.72 0q-13.1 0-13.1-13.1l0-39.4q0-13.1 13.1-13.1Z" fill="#FAB005" p-id="7151"></path><path d="M546 746.8m13.1 0l176.72 0q13.1 0 13.1 13.1l0 39.4q0 13.1-13.1 13.1l-176.72 0q-13.1 0-13.1-13.1l0-39.4q0-13.1 13.1-13.1Z" fill="#FAB005" p-id="7152"></path><path d="M591.44 681.2m13.1 0l176.72 0q13.1 0 13.1 13.1l0 39.4q0 13.1-13.1 13.1l-176.72 0q-13.1 0-13.1-13.1l0-39.4q0-13.1 13.1-13.1Z" fill="#FCC419" p-id="7153"></path><path d="M562.24 615.6m13.1 0l176.72 0q13.1 0 13.1 13.1l0 39.4q0 13.1-13.1 13.1l-176.72 0q-13.1 0-13.1-13.1l0-39.4q0-13.1 13.1-13.1Z" fill="#FFD43B" p-id="7154"></path><path d="M645.38 550m13.1 0l176.72 0q13.1 0 13.1 13.1l0 39.4q0 13.1-13.1 13.1l-176.72 0q-13.1 0-13.1-13.1l0-39.4q0-13.1 13.1-13.1Z" fill="#FAB005" p-id="7155"></path></svg>