<svg viewBox="0 0 60 60" xmlns="http://www.w3.org/2000/svg" width="60"><g fill="none" fill-rule="evenodd"><path d="M5.121 54.121A3 3 0 11.88 49.88l18-18a3 3 0 014.242 0L33 41.757 45.879 28.88a3 3 0 114.242 4.242l-15 15a3 3 0 01-4.242 0L21 38.243 5.121 54.12z" fill="#BBBDCB"></path><path d="M43.757 16L36.88 9.121C34.989 7.231 36.327 4 39 4h18a3 3 0 013 3v18c0 2.673-3.231 4.011-5.121 2.121L48 20.243 35.121 33.12a3 3 0 01-4.242 0L21 23.243 5.121 39.12A3 3 0 11.88 34.88l18-18a3 3 0 014.242 0L33 26.757 43.757 16z" fill="#2D3A4A"></path></g></svg>