<?xml version="1.0" standalone="no"?><!DOCTYPE svg PUBLIC "-//W3C//DTD SVG 1.1//EN" "http://www.w3.org/Graphics/SVG/1.1/DTD/svg11.dtd"><svg t="1606575932273" class="icon" viewBox="0 0 1024 1024" version="1.1" xmlns="http://www.w3.org/2000/svg" p-id="13526" xmlns:xlink="http://www.w3.org/1999/xlink" width="200" height="200"><defs><style type="text/css"></style></defs><path d="M940.032 482.816c12.288-12.288 19.456-29.184 19.456-46.592 0-17.408-6.656-34.304-19.456-46.592-3.584-3.584-4.096-8.704-1.536-13.312 8.704-15.36 11.264-32.768 6.656-50.176-4.608-16.896-15.36-31.232-30.72-39.936-4.608-2.56-6.656-7.68-5.12-12.288 4.608-16.896 2.048-34.816-6.656-50.176-8.704-15.36-23.04-26.112-39.936-30.72-5.12-1.536-8.192-5.632-8.192-10.752 0-17.408-6.656-34.304-19.456-46.592-12.288-12.288-29.184-19.456-46.592-19.456-5.12 0-9.216-3.072-10.752-8.192-4.608-16.896-15.36-31.232-30.72-39.936-10.24-5.632-21.504-8.704-32.768-8.704-5.632 0-11.776 0.512-17.408 2.048-1.024 0.512-2.048 0.512-3.072 0.512-4.096 0-7.168-2.048-9.216-5.632-8.704-15.36-23.04-26.112-39.936-30.72-5.632-1.536-11.264-2.048-16.896-2.048-11.776 0-23.04 3.072-32.768 8.704-1.536 1.024-3.584 1.536-5.632 1.536-3.072 0-5.632-1.024-7.68-3.072-12.288-12.288-29.184-19.456-46.592-19.456-17.408 0-34.304 6.656-46.592 19.456-2.048 2.048-4.608 3.072-7.68 3.072-2.048 0-3.584-0.512-5.632-1.536-10.24-5.632-21.504-8.704-32.768-8.704-5.632 0-11.264 0.512-16.896 2.048-16.896 4.608-31.232 15.36-39.936 30.72-2.048 3.584-5.632 5.632-9.216 5.632-1.024 0-2.048 0-3.072-0.512-5.632-1.536-11.264-2.048-17.408-2.048-11.776 0-23.04 3.072-32.768 8.704-15.36 8.704-26.112 23.04-30.72 39.936-1.536 5.12-5.632 8.192-10.752 8.192-17.408 0-34.304 6.656-46.592 19.456-12.288 12.288-19.456 29.184-19.456 46.592 0 5.12-3.072 9.216-8.192 10.752-16.896 4.608-31.232 15.36-39.936 30.72-8.704 15.36-11.264 33.28-6.656 50.176 1.536 5.12-0.512 9.728-5.12 12.288-15.36 8.704-26.112 23.04-30.72 39.936-4.608 16.896-2.048 34.816 6.656 50.176 2.56 4.608 2.048 9.728-1.536 13.312-12.288 12.288-19.456 29.184-19.456 46.592s6.656 34.304 19.456 46.592c3.584 3.584 4.096 8.704 1.536 13.312-8.704 15.36-11.264 33.28-6.656 50.176 4.608 16.896 15.36 31.232 30.72 39.936 4.608 2.56 6.656 7.168 5.12 12.288-4.608 16.896-2.048 34.816 6.656 50.176 8.704 15.36 23.04 26.112 39.936 30.72 5.12 1.536 8.192 5.632 8.192 10.752 0 17.408 6.656 34.304 19.456 46.592 12.288 12.288 29.184 19.456 46.592 19.456 5.12 0 9.216 3.072 10.752 8.192 4.608 16.896 15.36 31.232 30.72 39.936 10.24 5.632 21.504 8.704 32.768 8.704 5.632 0 11.776-0.512 17.408-2.048 1.024-0.512 2.048-0.512 3.072-0.512 4.096 0 7.168 2.048 9.216 5.632 8.704 15.36 23.04 26.112 39.936 30.72 5.632 1.536 11.264 2.048 16.896 2.048 11.776 0 23.04-3.072 32.768-8.704 1.536-1.024 3.584-1.536 5.632-1.536 3.072 0 5.632 1.024 7.68 3.072 12.288 12.288 29.184 19.456 46.592 19.456s34.304-6.656 46.592-19.456c2.048-2.048 4.608-3.072 7.68-3.072 2.048 0 3.584 0.512 5.632 1.536 10.24 5.632 21.504 8.704 32.768 8.704 5.632 0 11.264-0.512 16.896-2.048 16.896-4.608 31.232-15.36 39.936-30.72 2.048-3.584 5.632-5.632 9.216-5.632 1.024 0 2.048 0 3.072 0.512 5.632 1.536 11.264 2.048 17.408 2.048 11.776 0 23.04-3.072 32.768-8.704 15.36-8.704 26.112-23.04 30.72-39.936 1.536-5.12 5.632-8.192 10.752-8.192 17.408 0 34.304-6.656 46.592-19.456 12.288-12.288 19.456-29.184 19.456-46.592 0-5.12 3.072-9.216 8.192-10.752 16.896-4.608 31.232-15.36 39.936-30.72 8.704-15.36 11.264-33.28 6.656-50.176-1.536-4.608 0.512-9.728 5.12-12.288 15.36-8.704 26.112-23.04 30.72-39.936 4.608-16.896 2.048-34.816-6.656-50.176-2.56-4.608-2.048-9.728 1.536-13.312z m-2.048 61.44c-4.096 15.872-14.336 28.16-27.136 35.84-7.168 4.096-10.752 12.288-8.704 20.48 4.096 14.336 2.048 30.72-5.632 44.544-8.192 13.824-20.992 23.552-35.84 27.136-8.192 2.048-13.312 9.216-13.312 17.408 0 14.848-5.632 30.208-16.896 41.472s-26.624 17.408-41.472 16.896c-8.192 0-15.36 5.632-17.408 13.312-4.096 14.336-13.312 27.648-27.136 35.84-13.824 8.192-30.208 9.728-44.544 5.632-8.192-2.048-16.384 1.024-20.48 8.704-7.68 12.8-19.968 23.04-35.84 27.136-15.872 4.096-31.744 1.536-44.544-6.144-7.168-4.096-15.872-3.072-22.016 3.072-10.752 10.752-25.088 17.408-41.472 17.408-16.384 0-30.72-6.656-41.472-17.408-6.144-6.144-14.848-7.168-22.016-3.072-12.8 7.68-28.672 10.24-44.544 6.144-15.872-4.096-28.16-14.336-35.84-27.136-4.096-7.168-12.288-10.752-20.48-8.704-14.336 4.096-30.72 2.048-44.544-5.632-13.824-8.192-23.552-20.992-27.136-35.84-2.048-8.192-9.216-13.312-17.408-13.312-14.848 0-30.208-5.632-41.472-16.896-11.264-11.264-17.408-26.624-17.408-41.472 0-8.192-5.632-15.36-13.312-17.408-14.336-4.096-27.648-13.312-35.84-27.136-8.192-13.824-9.728-30.208-5.632-44.544 2.048-8.192-1.024-16.384-8.704-20.48-12.8-7.68-23.04-19.968-27.136-35.84-4.096-15.872-1.536-31.744 6.144-44.544 4.096-7.168 3.072-15.872-3.072-22.016-10.752-10.752-17.408-25.088-17.408-41.472s6.656-30.72 17.408-41.472c6.144-6.144 7.168-14.848 3.072-22.016-7.68-12.8-10.24-28.672-6.144-44.544 4.096-15.872 14.336-28.16 27.136-35.84 7.168-4.096 10.752-12.288 8.704-20.48-4.096-14.336-2.048-30.72 5.632-44.544 8.192-13.824 20.992-23.552 35.84-27.136 8.192-2.048 13.312-9.216 13.312-17.408 0-14.848 5.632-30.208 17.408-41.472 11.264-11.264 26.624-17.408 41.472-16.896 8.192 0 15.36-5.632 17.408-13.312 4.096-14.336 13.312-27.648 27.136-35.84s30.208-9.728 44.544-5.632c8.192 2.048 16.384-1.024 20.48-8.704 7.68-12.8 19.968-23.04 35.84-27.136 15.872-4.096 31.744-1.536 44.544 6.144 7.168 4.096 15.872 3.072 22.016-3.072 10.752-10.752 25.088-17.408 41.472-17.408 16.384 0 30.72 6.656 41.472 17.408 6.144 6.144 14.848 7.168 22.016 3.072 12.8-7.68 28.672-10.24 44.544-6.144 15.872 4.096 28.16 14.336 35.84 27.136 4.096 7.168 12.288 10.752 20.48 8.704 14.336-4.096 30.72-2.048 44.544 5.632 13.824 8.192 23.552 20.992 27.136 35.84 2.048 8.192 9.216 13.312 17.408 13.312 14.848 0 30.208 5.632 41.472 17.408 11.264 11.264 17.408 26.624 17.408 41.472 0 8.192 5.632 15.36 13.312 17.408 14.336 4.096 27.648 13.312 35.84 27.136s9.728 30.208 5.632 44.544c-2.048 8.192 1.024 16.384 8.704 20.48 12.8 7.68 23.04 19.968 27.136 35.84 4.096 15.872 1.536 31.744-6.144 44.544-4.096 7.168-3.072 15.872 3.072 22.016 10.752 10.752 17.408 25.088 17.408 41.472 0 16.384-6.656 30.72-17.408 41.472-6.144 6.144-7.168 14.848-3.072 22.016 7.68 12.8 10.24 28.672 5.632 44.032z"  p-id="13527"></path><path d="M934.912 477.184c10.752-10.752 17.408-25.088 17.408-41.472 0-16.384-6.656-30.72-17.408-41.472-6.144-6.144-7.168-14.848-3.072-22.016 7.68-12.8 10.24-28.672 6.144-44.544-4.096-15.872-14.336-28.16-27.136-35.84-7.168-4.096-10.752-12.288-8.704-20.48 4.096-14.336 2.048-30.72-5.632-44.544-8.192-13.824-20.992-23.552-35.84-27.136-8.192-2.048-13.312-9.216-13.312-17.408 0-14.848-5.632-30.208-17.408-41.472-11.264-11.264-26.624-17.408-41.472-17.408-8.192 0-15.36-5.632-17.408-13.312-4.096-14.336-13.312-27.648-27.136-35.84s-30.208-9.728-44.544-5.632c-8.192 2.048-16.384-1.024-20.48-8.704-7.68-12.8-19.968-23.04-35.84-27.136-15.872-4.096-31.744-1.536-44.544 6.144-7.168 4.096-15.872 3.072-22.016-3.072-10.752-10.752-25.088-17.408-41.472-17.408s-30.72 6.656-41.472 17.408c-6.144 6.144-14.848 7.168-22.016 3.072-12.8-7.68-28.672-10.24-44.544-6.144-15.872 4.096-28.16 14.336-35.84 27.136-4.096 7.168-12.288 10.752-20.48 8.704-14.336-4.096-30.72-2.048-44.544 5.632-13.824 8.192-23.552 20.992-27.136 35.84-2.048 7.68-9.216 13.312-17.408 13.312-14.848 0-30.208 5.632-41.472 16.896-11.264 11.264-17.408 26.624-17.408 41.472 0 8.192-5.632 15.36-13.312 17.408-14.336 4.096-27.648 13.312-35.84 27.136-8.192 13.824-9.728 30.208-5.632 44.544 2.048 8.192-1.024 16.384-8.704 20.48-12.8 7.68-23.04 19.968-27.136 35.84-4.096 15.872-1.536 31.744 6.144 44.544 4.096 7.168 3.072 15.872-3.072 22.016C124.416 404.48 117.76 418.816 117.76 435.2c0 16.384 6.656 30.72 17.408 41.472 6.144 6.144 7.168 14.848 3.072 22.016-7.68 12.8-10.24 28.672-6.144 44.544 4.096 15.872 14.336 28.16 27.136 35.84 7.168 4.096 10.752 12.288 8.704 20.48-4.096 14.336-2.048 30.72 5.632 44.544 8.192 13.824 20.992 23.552 35.84 27.136 8.192 2.048 13.312 9.216 13.312 17.408 0 14.848 5.632 30.208 17.408 41.472 11.264 11.264 26.624 17.408 41.472 16.896 8.192 0 15.36 5.632 17.408 13.312 4.096 14.336 13.312 27.648 27.136 35.84 13.824 8.192 30.208 9.728 44.544 5.632 8.192-2.048 16.384 1.024 20.48 8.704 7.68 12.8 19.968 23.04 35.84 27.136 15.872 4.096 31.744 1.536 44.544-6.144 7.168-4.096 15.872-3.072 22.016 3.072 10.752 10.752 25.088 17.408 41.472 17.408 16.384 0 30.72-6.656 41.472-17.408 6.144-6.144 14.848-7.168 22.016-3.072 12.8 7.68 28.672 10.24 44.544 6.144 15.872-4.096 28.16-14.336 35.84-27.136 4.096-7.168 12.288-10.752 20.48-8.704 14.336 4.096 30.72 2.048 44.544-5.632 13.824-8.192 23.552-20.992 27.136-35.84 2.048-8.192 9.216-13.312 17.408-13.312 14.848 0 30.208-5.632 41.472-16.896 11.264-11.264 17.408-26.624 16.896-41.472 0-8.192 5.632-15.36 13.312-17.408 14.336-4.096 27.648-13.312 35.84-27.136s9.728-30.208 5.632-44.544c-2.048-8.192 1.024-16.384 8.704-20.48 12.8-7.68 23.04-19.968 27.136-35.84s1.536-31.744-6.144-44.544c-3.072-6.656-2.048-15.872 3.584-21.504zM795.648 696.32c-66.56 66.56-158.72 108.032-260.608 108.032S340.992 762.88 274.432 696.32s-108.032-158.72-108.032-260.608 41.472-194.048 108.032-260.608 158.72-108.032 260.608-108.032 194.048 41.472 260.608 108.032 108.032 158.72 108.032 260.608-40.96 194.048-108.032 260.608z"  p-id="13528"></path><path d="M535.04 93.184c-94.72 0-180.224 38.4-242.176 100.352S192.512 340.992 192.512 435.712s38.4 180.224 100.352 242.176S440.32 778.24 535.04 778.24s180.224-38.4 242.176-100.352c61.952-61.952 100.352-147.456 100.352-242.176s-38.4-180.224-100.352-242.176c-61.952-61.952-147.456-100.352-242.176-100.352z m376.832 642.56l-39.936-59.904-9.216 3.072c-5.12 1.536-8.192 5.632-8.192 10.752 0 17.408-6.656 34.304-19.456 46.592-12.288 12.288-29.184 19.456-46.592 19.456-5.12 0-9.216 3.072-10.752 8.192-4.608 16.896-15.36 31.232-30.72 39.936-10.24 5.632-21.504 8.704-32.768 8.704-5.632 0-11.776-0.512-17.408-2.048-1.024-0.512-2.048-0.512-3.072-0.512-4.096 0-7.168 2.048-9.216 5.632-6.144 10.24-14.848 18.944-25.088 24.576l19.968 29.696 82.432 142.848L855.04 906.24l138.752-27.136-81.92-143.36zM385.536 815.104c-2.048-3.584-5.632-5.632-9.216-5.632-1.024 0-2.048 0-3.072 0.512-5.632 1.536-11.264 2.048-17.408 2.048-11.776 0-23.04-3.072-32.768-8.704-15.36-8.704-26.112-23.04-30.72-39.936-1.536-5.12-5.632-8.192-10.752-8.192-17.92 0-34.304-6.656-46.592-19.456-12.288-12.288-19.456-29.184-19.456-46.592 0-5.12-3.072-9.216-8.192-10.752-3.072-1.024-6.656-2.048-9.728-3.584l-39.936 59.904-82.432 142.848 138.752 27.136 93.184 107.52 82.432-142.848L409.6 839.68c-9.728-5.632-18.432-14.336-24.064-24.576z"  p-id="13529"></path><path d="M459.776 331.264L373.76 555.52h-47.104L238.592 331.264h59.392l58.88 152.064L414.72 331.264h45.056zM553.984 305.152H497.152V252.416h57.344v52.736z m0 250.368H497.152V331.264h57.344v224.256zM680.96 631.296h-58.368V331.264h54.784v38.912c17.408-29.184 43.52-43.52 77.312-43.52 28.16 0 50.688 10.752 67.072 32.256s25.088 49.152 25.088 82.944c0 31.744-8.192 59.392-24.064 82.944s-39.936 35.328-71.168 35.328c-32.768 0-56.32-11.776-70.656-35.84v107.008z m0-167.424c0 16.384 5.632 29.696 16.384 40.448 10.752 10.752 23.04 15.872 36.352 15.872 18.432 0 31.744-7.168 39.936-20.992 8.192-14.336 12.8-32.256 12.8-53.76 0-23.04-4.096-41.472-12.8-55.808-8.704-14.336-20.992-21.504-37.888-21.504-15.36 0-28.16 5.632-38.912 17.408-10.752 11.776-15.872 27.136-15.872 46.08v32.256z" fill="#FFFFFF" p-id="13530"></path></svg>
